<svg xmlns="http://www.w3.org/2000/svg" viewBox="0 0 198.887 60.104">
  <defs>
    <style>
      .cls-1, .cls-2 {
        fill: #ff3838;
      }

      .cls-1 {
        fill-rule: evenodd;
      }
    </style>
  </defs>
  <g id="logo" transform="translate(-20.791 -9.063)">
    <path id="Fill-5" class="cls-1" d="M165.963,48h1.217l2.33,4.142L171.84,48h1.19v8.025h-1.087V49.89l-2.381,4.271h-.13L167.05,49.89v6.135h-1.087V48Zm-4.814,1.061H159V48h5.41v1.061h-2.148v6.964h-1.113V49.061Z" transform="translate(46.647 13.142)"/>
    <g id="Circle-K_newlogo_noTM" transform="translate(20.791 9.063)">
      <g id="Layer_1" transform="translate(0)">
        <g id="Group">
          <rect id="Rectangle-path" class="cls-2" width="182.077" height="8.94" transform="translate(0 50.855)"/>
          <path id="Shape" class="cls-1" d="M35.316,19.1h5.768V41.4H35.316V19.1Zm15.67,11.44c2.307,0,3.845-1.154,3.845-3.461s-1.538-3.269-3.845-3.269H49.351v6.729Zm39.7,5.768H98.38v5.1H84.825V19.1h5.768V36.307ZM100.206,19.1h14.612v5.095h-8.94v3.653h8.556v4.711h-8.556v3.749h8.94v5.1H100.206V19.1Zm49.6,10.767L157.694,19.2h-8.076l-7.305,10.286V19.2H135.2V41.5h7.114V31.212l12.593,16.247a20.439,20.439,0,0,1-10.862,2.98,19.827,19.827,0,0,1-20.189-20.188,20.188,20.188,0,1,1,40.376,0,20.332,20.332,0,0,1-4.133,12.5L149.811,29.866ZM60.6,26.5a6.7,6.7,0,0,1-4.134,6.441l5.672,8.46H55.408l-5.96-9.325V41.4H43.68V19.1h7.114c6.249,0,9.806,2.5,9.806,7.4ZM23.78,24a6.074,6.074,0,0,0-6.057,6.249A6.017,6.017,0,0,0,23.78,36.5a6.432,6.432,0,0,0,5.383-3.076l4.422,2.884a11.313,11.313,0,0,1-10,5.48,11.538,11.538,0,1,1,0-23.072,11.228,11.228,0,0,1,10,5.48l-4.518,2.98A5.959,5.959,0,0,0,23.78,24Zm49.7,0a6.074,6.074,0,0,0-6.057,6.249A6.017,6.017,0,0,0,73.481,36.5a6.431,6.431,0,0,0,5.383-3.076l4.422,2.884A11.777,11.777,0,0,1,61.56,30.251,11.433,11.433,0,0,1,73.289,18.715a11.228,11.228,0,0,1,10,5.48l-4.518,2.98A5.746,5.746,0,0,0,73.481,24Z" transform="translate(2.945 -10.063)"/>
        </g>
      </g>
    </g>
  </g>
</svg>
